<svg xmlns="http://www.w3.org/2000/svg" xmlns:xlink="http://www.w3.org/1999/xlink" width="200" zoomAndPan="magnify" viewBox="0 0 150 74.999997" height="100" preserveAspectRatio="xMidYMid meet" version="1.0"><defs><g/><clipPath id="71f9dccfea"><path d="M 3.160156 10 L 49.035156 10 L 49.035156 62.792969 L 3.160156 62.792969 Z M 3.160156 10 " clip-rule="nonzero"/></clipPath></defs><g clip-path="url(#71f9dccfea)"><path fill="#2b1511" d="M 26.09375 10.136719 C 24.734375 10.136719 24.082031 14.644531 23.851562 16.753906 C 23.804688 17.398438 23.75 17.980469 23.75 18.578125 L 23.75 24.945312 C 23.734375 25.308594 23.671875 25.410156 23.464844 25.589844 L 18.5625 29.875 C 18.226562 30.105469 17.792969 30.097656 17.824219 29.300781 L 17.824219 28.730469 C 17.824219 28.417969 17.574219 28.160156 17.261719 28.160156 L 16.558594 28.160156 C 16.246094 28.160156 15.992188 28.417969 15.992188 28.730469 L 15.992188 32.070312 C 15.992188 32.171875 15.972656 32.179688 15.902344 32.246094 L 11.253906 36.390625 C 10.777344 36.722656 10.601562 36.398438 10.578125 35.8125 L 10.578125 34.773438 C 10.578125 34.457031 10.328125 34.203125 10.015625 34.203125 L 9.3125 34.203125 C 9 34.203125 8.742188 34.457031 8.742188 34.773438 L 8.742188 38.230469 C 8.742188 38.273438 8.726562 38.277344 8.707031 38.300781 L 3.71875 42.613281 C 3.402344 43.023438 3.214844 43.207031 3.226562 43.898438 L 3.210938 45.839844 C 3.167969 46.101562 3.414062 46.207031 3.585938 46.125 C 3.585938 46.125 12.101562 40.851562 15.367188 39.40625 C 18.632812 37.960938 22.984375 36.96875 22.984375 36.96875 C 23.320312 36.886719 23.621094 36.878906 23.75 37.238281 L 23.75 51.828125 C 23.757812 53.566406 24.414062 54.621094 23.75 55.246094 L 18.320312 60.539062 C 17.992188 60.890625 17.800781 61.191406 17.761719 61.761719 L 17.769531 62.363281 C 17.789062 62.644531 17.894531 62.789062 18.152344 62.757812 L 25.09375 61.046875 C 25.277344 60.988281 25.421875 61.007812 25.550781 61.183594 L 26.257812 62.75 L 27.128906 61.144531 C 27.25 60.972656 27.476562 60.890625 27.644531 60.949219 C 29.789062 61.460938 31.929688 61.96875 34.070312 62.476562 C 34.347656 62.511719 34.570312 62.503906 34.605469 62.132812 L 34.605469 61.214844 C 34.460938 60.578125 34.097656 60.28125 33.714844 59.902344 L 28.265625 55.246094 C 27.757812 54.730469 28.261719 53.632812 28.433594 51.878906 L 28.433594 37.457031 L 28.441406 37.453125 L 28.445312 37.453125 L 28.445312 37.449219 L 28.449219 37.449219 L 28.449219 37.445312 L 28.453125 37.445312 L 28.453125 37.4375 L 28.457031 37.4375 C 28.460938 37.417969 28.46875 37.398438 28.472656 37.378906 C 28.476562 37.359375 28.484375 37.339844 28.492188 37.320312 C 28.496094 37.304688 28.503906 37.285156 28.511719 37.269531 C 28.515625 37.253906 28.519531 37.234375 28.527344 37.21875 C 28.535156 37.203125 28.542969 37.1875 28.550781 37.171875 C 28.5625 37.15625 28.570312 37.140625 28.582031 37.128906 C 28.589844 37.113281 28.601562 37.101562 28.613281 37.089844 C 28.625 37.078125 28.636719 37.0625 28.652344 37.054688 C 28.664062 37.042969 28.675781 37.035156 28.6875 37.023438 C 28.703125 37.015625 28.71875 37.003906 28.734375 36.996094 C 28.75 36.988281 28.765625 36.984375 28.78125 36.976562 C 28.800781 36.972656 28.820312 36.96875 28.839844 36.964844 C 28.855469 36.960938 28.875 36.957031 28.894531 36.953125 C 28.914062 36.953125 28.9375 36.953125 28.960938 36.953125 C 28.984375 36.953125 29.007812 36.957031 29.03125 36.960938 C 29.054688 36.960938 29.078125 36.964844 29.105469 36.96875 C 29.105469 36.96875 33.058594 37.828125 36.390625 39.242188 C 39.722656 40.652344 48.613281 45.988281 48.613281 45.988281 C 48.816406 46.03125 48.988281 46 49.011719 45.800781 L 49.011719 43.996094 C 49.023438 43.515625 48.738281 43.085938 48.53125 42.890625 L 43.652344 38.5625 C 43.484375 38.355469 43.445312 38.316406 43.441406 38.195312 L 43.441406 34.769531 C 43.441406 34.457031 43.1875 34.203125 42.875 34.203125 L 42.167969 34.203125 C 41.855469 34.203125 41.605469 34.457031 41.605469 34.769531 L 41.605469 35.8125 C 41.660156 36.429688 41.496094 36.660156 41.113281 36.367188 L 36.328125 32.246094 C 36.222656 32.152344 36.195312 32.148438 36.199219 32.058594 L 36.199219 28.730469 C 36.199219 28.417969 35.945312 28.160156 35.628906 28.160156 L 34.925781 28.160156 C 34.613281 28.160156 34.363281 28.417969 34.363281 28.730469 L 34.363281 29.300781 C 34.445312 30.09375 33.925781 30.25 33.578125 29.867188 L 28.707031 25.578125 C 28.480469 25.375 28.457031 25.25 28.433594 24.960938 L 28.433594 18.578125 C 28.421875 17.945312 28.386719 17.238281 28.316406 16.660156 C 28.035156 14.425781 27.167969 9.597656 26.09375 10.136719 Z M 26.09375 10.136719 " fill-opacity="1" fill-rule="evenodd"/></g><g fill="#2b1511" fill-opacity="1"><g transform="translate(49.039979, 49.512889)"><g><path d="M 6.421875 -16.578125 L 6.421875 -14.8125 L 6.484375 -14.8125 C 6.898438 -15.664062 7.445312 -16.265625 8.125 -16.609375 C 8.800781 -16.960938 9.632812 -17.140625 10.625 -17.140625 L 10.625 -12.15625 C 9.21875 -12.132812 8.210938 -11.875 7.609375 -11.375 C 7.015625 -10.875 6.71875 -10.128906 6.71875 -9.140625 L 6.71875 0 L 1.765625 0 L 1.765625 -16.578125 Z M 6.421875 -16.578125 "/></g></g></g><g fill="#2b1511" fill-opacity="1"><g transform="translate(59.876794, 49.512889)"><g><path d="M 6.75 -22.09375 L 6.75 -18.328125 L 1.796875 -18.328125 L 1.796875 -22.09375 Z M 6.75 -16.578125 L 6.75 0 L 1.796875 0 L 1.796875 -16.578125 Z M 6.75 -16.578125 "/></g></g></g><g fill="#2b1511" fill-opacity="1"><g transform="translate(68.414892, 49.512889)"><g><path d="M 6.453125 -16.578125 L 6.453125 -14.75 L 6.546875 -14.75 C 7.816406 -16.34375 9.546875 -17.140625 11.734375 -17.140625 C 13.285156 -17.140625 14.671875 -16.742188 15.890625 -15.953125 C 17.117188 -15.171875 18.078125 -14.097656 18.765625 -12.734375 C 19.453125 -11.367188 19.796875 -9.832031 19.796875 -8.125 C 19.796875 -6.550781 19.453125 -5.101562 18.765625 -3.78125 C 18.078125 -2.457031 17.117188 -1.398438 15.890625 -0.609375 C 14.671875 0.171875 13.285156 0.5625 11.734375 0.5625 C 9.660156 0.5625 8 -0.125 6.75 -1.5 L 6.75 5.53125 L 1.796875 5.53125 L 1.796875 -16.578125 Z M 14.84375 -8.265625 C 14.84375 -9.046875 14.65625 -9.757812 14.28125 -10.40625 C 13.914062 -11.050781 13.414062 -11.5625 12.78125 -11.9375 C 12.144531 -12.320312 11.4375 -12.515625 10.65625 -12.515625 C 9.90625 -12.515625 9.210938 -12.320312 8.578125 -11.9375 C 7.953125 -11.5625 7.457031 -11.050781 7.09375 -10.40625 C 6.726562 -9.757812 6.546875 -9.046875 6.546875 -8.265625 C 6.546875 -7.492188 6.726562 -6.789062 7.09375 -6.15625 C 7.457031 -5.519531 7.953125 -5.007812 8.578125 -4.625 C 9.210938 -4.25 9.914062 -4.0625 10.6875 -4.0625 C 11.46875 -4.0625 12.171875 -4.25 12.796875 -4.625 C 13.421875 -5.007812 13.914062 -5.523438 14.28125 -6.171875 C 14.65625 -6.816406 14.84375 -7.515625 14.84375 -8.265625 Z M 14.84375 -8.265625 "/></g></g></g><g fill="#2b1511" fill-opacity="1"><g transform="translate(89.222765, 49.512889)"><g><path d="M 6.453125 -16.578125 L 6.453125 -14.75 L 6.546875 -14.75 C 7.816406 -16.34375 9.546875 -17.140625 11.734375 -17.140625 C 13.285156 -17.140625 14.671875 -16.742188 15.890625 -15.953125 C 17.117188 -15.171875 18.078125 -14.097656 18.765625 -12.734375 C 19.453125 -11.367188 19.796875 -9.832031 19.796875 -8.125 C 19.796875 -6.550781 19.453125 -5.101562 18.765625 -3.78125 C 18.078125 -2.457031 17.117188 -1.398438 15.890625 -0.609375 C 14.671875 0.171875 13.285156 0.5625 11.734375 0.5625 C 9.660156 0.5625 8 -0.125 6.75 -1.5 L 6.75 5.53125 L 1.796875 5.53125 L 1.796875 -16.578125 Z M 14.84375 -8.265625 C 14.84375 -9.046875 14.65625 -9.757812 14.28125 -10.40625 C 13.914062 -11.050781 13.414062 -11.5625 12.78125 -11.9375 C 12.144531 -12.320312 11.4375 -12.515625 10.65625 -12.515625 C 9.90625 -12.515625 9.210938 -12.320312 8.578125 -11.9375 C 7.953125 -11.5625 7.457031 -11.050781 7.09375 -10.40625 C 6.726562 -9.757812 6.546875 -9.046875 6.546875 -8.265625 C 6.546875 -7.492188 6.726562 -6.789062 7.09375 -6.15625 C 7.457031 -5.519531 7.953125 -5.007812 8.578125 -4.625 C 9.210938 -4.25 9.914062 -4.0625 10.6875 -4.0625 C 11.46875 -4.0625 12.171875 -4.25 12.796875 -4.625 C 13.421875 -5.007812 13.914062 -5.523438 14.28125 -6.171875 C 14.65625 -6.816406 14.84375 -7.515625 14.84375 -8.265625 Z M 14.84375 -8.265625 "/></g></g></g><g fill="#2b1511" fill-opacity="1"><g transform="translate(110.030639, 49.512889)"><g><path d="M 9.671875 -3.640625 C 10.328125 -3.640625 10.890625 -3.765625 11.359375 -4.015625 C 11.828125 -4.265625 12.269531 -4.660156 12.6875 -5.203125 L 17.765625 -5.203125 C 16.972656 -3.390625 15.863281 -1.976562 14.4375 -0.96875 C 13.007812 0.03125 11.421875 0.53125 9.671875 0.53125 C 8.097656 0.53125 6.640625 0.144531 5.296875 -0.625 C 3.953125 -1.40625 2.878906 -2.46875 2.078125 -3.8125 C 1.285156 -5.15625 0.890625 -6.628906 0.890625 -8.234375 C 0.890625 -9.804688 1.273438 -11.273438 2.046875 -12.640625 C 2.828125 -14.003906 3.878906 -15.09375 5.203125 -15.90625 C 6.535156 -16.726562 7.992188 -17.140625 9.578125 -17.140625 C 11.210938 -17.140625 12.695312 -16.738281 14.03125 -15.9375 C 15.363281 -15.144531 16.410156 -14.0625 17.171875 -12.6875 C 17.941406 -11.3125 18.328125 -9.78125 18.328125 -8.09375 C 18.328125 -7.613281 18.289062 -7.175781 18.21875 -6.78125 L 5.796875 -6.78125 C 5.929688 -5.84375 6.359375 -5.082031 7.078125 -4.5 C 7.796875 -3.925781 8.660156 -3.640625 9.671875 -3.640625 Z M 9.578125 -12.953125 C 8.671875 -12.953125 7.875 -12.695312 7.1875 -12.1875 C 6.5 -11.6875 6.054688 -11 5.859375 -10.125 L 13.375 -10.125 C 13.175781 -10.976562 12.734375 -11.660156 12.046875 -12.171875 C 11.359375 -12.691406 10.535156 -12.953125 9.578125 -12.953125 Z M 9.578125 -12.953125 "/></g></g></g><g fill="#2b1511" fill-opacity="1"><g transform="translate(129.315985, 49.512889)"><g><path d="M 6.421875 -16.578125 L 6.421875 -14.8125 L 6.484375 -14.8125 C 6.898438 -15.664062 7.445312 -16.265625 8.125 -16.609375 C 8.800781 -16.960938 9.632812 -17.140625 10.625 -17.140625 L 10.625 -12.15625 C 9.21875 -12.132812 8.210938 -11.875 7.609375 -11.375 C 7.015625 -10.875 6.71875 -10.128906 6.71875 -9.140625 L 6.71875 0 L 1.765625 0 L 1.765625 -16.578125 Z M 6.421875 -16.578125 "/></g></g></g></svg>